<?xml version="1.0" encoding="utf-8"?>
<!-- Generator: Adobe Illustrator 16.0.0, SVG Export Plug-In . SVG Version: 6.00 Build 0)  -->
<!DOCTYPE svg PUBLIC "-//W3C//DTD SVG 1.1//EN" "http://www.w3.org/Graphics/SVG/1.1/DTD/svg11.dtd">
<svg version="1.1" id="Capa_1" xmlns="http://www.w3.org/2000/svg" xmlns:xlink="http://www.w3.org/1999/xlink" x="0px" y="0px"
	 width="187.861px" height="38.333px" viewBox="0 0 187.861 38.333" enable-background="new 0 0 187.861 38.333"
	 xml:space="preserve">
<path id="_x3C_D_x3E_" fill="#FFFFFF" d="M22.797,18.685c0,5.656-1.152,9.98-3.457,12.973s-5.621,4.488-9.949,4.488H1V1.88h9.164
	c3.984,0,7.086,1.473,9.305,4.418S22.797,13.373,22.797,18.685z M16.258,18.873c0-7.656-2.109-11.484-6.328-11.484H7.375v23.18
	h2.062c2.328,0,4.047-0.973,5.156-2.918S16.258,22.779,16.258,18.873z"/>
<path id="_x3C_E_x3E_" fill="#FFFFFF" d="M43.234,36.146H27.789V1.88h15.445v5.508h-9.07v8.156h8.414v5.531h-8.414v9.492h9.07
	V36.146z"/>
<path id="_x3C_C_x3E_" fill="#FFFFFF" d="M59.594,6.966c-1.828,0-3.27,1.07-4.324,3.211s-1.582,5.117-1.582,8.93
	c0,7.938,2.07,11.906,6.211,11.906c1.812,0,3.711-0.578,5.695-1.734v5.672c-1.672,1.109-3.812,1.664-6.422,1.664
	c-3.859,0-6.824-1.535-8.895-4.605s-3.105-7.387-3.105-12.949s1.066-9.898,3.199-13.008s5.098-4.664,8.895-4.664
	c1.25,0,2.449,0.172,3.598,0.516s2.379,0.945,3.691,1.805l-2.109,5.18c-0.703-0.484-1.453-0.926-2.25-1.324
	S60.531,6.966,59.594,6.966z"/>
<path id="_x3C_O_x3E_" fill="#FFFFFF" d="M93.297,18.966c0,5.672-1.062,10.031-3.188,13.078s-5.164,4.57-9.117,4.57
	c-3.969,0-7.016-1.52-9.141-4.559s-3.188-7.418-3.188-13.137c0-5.672,1.062-10.02,3.188-13.043s5.188-4.535,9.188-4.535
	c3.953,0,6.984,1.52,9.094,4.559S93.297,13.294,93.297,18.966z M75.18,18.966c0,3.906,0.492,6.883,1.477,8.93s2.43,3.07,4.336,3.07
	c3.844,0,5.766-4,5.766-12s-1.906-12-5.719-12c-1.938,0-3.398,1.02-4.383,3.059S75.18,15.044,75.18,18.966z"/>
<path id="_x3C_M_x3E_" fill="#90C5DB" d="M106.217,36.146l0.814-29.18h-0.258c-0.269,2.25-0.638,4.312-1.109,6.188l-5.775,22.992
	h-5.906l8.607-34.266h9.797l-0.905,26.93h0.188l12.577-26.93h9.938l-8.607,34.266h-6.047l5.834-23.227
	c0.483-1.922,1.087-3.891,1.812-5.906h-0.188l-13.81,29.133H106.217z"/>
<path id="_x3C_A_x3E_" fill="#90C5DB" d="M147.842,36.146l0.204-8.648h-8.93l-4.141,8.648H128.6L145.727,1.74h8.648l-0.135,34.406
	H147.842z M148.269,21.849l0.174-7.969c0.012-0.484,0.071-1.699,0.177-3.645s0.202-3.246,0.289-3.902
	c-0.541,1.344-1.17,2.824-1.889,4.441s-2.459,5.309-5.22,11.074H148.269z"/>
<path id="_x3C_G_x3E_" fill="#90C5DB" d="M172.397,17.138h10.477l-4.416,17.578c-3.287,1.266-6.602,1.898-9.946,1.898
	c-3.984,0-6.67-1.516-8.057-4.547c-1.387-3.031-1.364-7.398,0.068-13.102c1.381-5.5,3.693-9.805,6.935-12.914
	s7.074-4.664,11.496-4.664c2.734,0,5.167,0.703,7.298,2.109l-3.323,5.203c-1.655-1.125-3.326-1.688-5.014-1.688
	c-2.422,0-4.611,1.082-6.569,3.246s-3.406,5.113-4.344,8.848c-0.965,3.844-1.193,6.789-0.684,8.836s1.74,3.07,3.693,3.07
	c1.031,0,2.111-0.133,3.241-0.398l1.972-7.852h-4.242L172.397,17.138z"/>
</svg>
