<?xml version="1.0" encoding="utf-8"?>
<!-- Generator: Adobe Illustrator 18.0.0, SVG Export Plug-In . SVG Version: 6.00 Build 0)  -->
<!DOCTYPE svg PUBLIC "-//W3C//DTD SVG 1.1//EN" "http://www.w3.org/Graphics/SVG/1.1/DTD/svg11.dtd">
<svg version="1.1" id="Your_Icon" xmlns="http://www.w3.org/2000/svg" xmlns:xlink="http://www.w3.org/1999/xlink" x="0px" y="0px"
	 viewBox="41.8 203.5 561.5 424.1" enable-background="new 41.8 203.5 561.5 424.1" xml:space="preserve">
<path fill="#BFBFBF" d="M586.4,203.5H58.7c-8.9,0-16.9,7.1-16.9,16.9v390.3c0,8.9,7.1,16.9,16.9,16.9h527.7
	c8.9,0,16.9-7.1,16.9-16.9V220.3C602.4,211.4,595.3,203.5,586.4,203.5z M535.9,236.3L322.1,395L108.4,236.3H535.9z M74.7,593.7
	V253.1l237.7,175.6c2.7,1.8,6.2,3.5,9.8,3.5c3.5,0,7.1-0.9,9.8-3.5l237.7-175.6v340.6H74.7z"/>
</svg>
