<svg xmlns="http://www.w3.org/2000/svg" width="245" height="67" viewBox="0 0 245 67"><path fill="#fff" d="M.077 33.785c1.54 22.873 30.266 36.582 52.676 32.5 20.716-3.772 30.882-29.418 21.641-47.439-15.788-30.729-76.859-22.566-74.317 14.939z"/><path fill="#231F20" d="M1.925 26.391c-3.004 21.102 20.331 39.584 43.589 39.584 19.638 0 33.269-19.638 29.034-39.583-6.624-31.652-67.694-34.502-72.623-.001z"/><path fill="#8E9090" d="M25.259 17.689c-.616-.462-.231-1.232.231-1.694.308-.385.462 0 .462.154.231.847.616 1.771.924 2.541.231.54 0 .462-.154.309-.461-.54-.846-.847-1.463-1.31zm23.335 28.495c.077.077.462.462.924 1.078-.385-1.001-.847-2.079-1.231-3.233-.385-1.078 0-1.078.616-.464 1.694 2.003 3.62 4.468 3.312 7.009-.231 1.771 2.002 3.235 3.312 5.084.693 1-1.309 1.849-1.54 1.31-.231-.54-.462-1.155-.77-1.695-.077.925-.154 1.541-.693 2.234-.693 1.001-1.155.308-1.155.308-.231-.308-.77-1.617-1.386-3.389-.847-.077-1.386-.615-1.771-1.311.616 1.771 1.386 4.006 2.156 6.008.616 1.695.154 1.771-.848.386-.693-1.001-1.155-2.08-1.463-3.157-.462-.078-.77-.23-1.078-.539.231.77.308 1.463.231 2.079l-.154 1.155s-.231 1.386-.924.076c-.385-.771-.693-1.541-1.001-2.311 0 .23 0 .463-.077.615-.077.386-.231.463-.693.309l-.617-.229v.539c0 .462-.385.462-.539 0-1.155-3.005-2.233-6.624-2.772-10.396-.154-.849.154-.849.539-.31.616.771 1.078 1.771 1.463 2.85l-.154-1.618c-.077-.537.154-.537.308-.152.385.693.693 1.463 1.078 2.311-.077-.539.077-.693.462-.154.462.617.924 1.388 1.386 2.156-.154-.847-.308-1.693-.462-2.617-.077-.463.077-.463.231-.078.616 1.232 1.309 2.466 1.849 3.697-.617-2.232-1.232-4.391-3.081-5.931.385.924.77 1.771.77 2.464 0 .463-.154.54-.462.154-.771-.924-1.232-2.541-1.078-3.773.077-.462.23-.23.308-.076.077.23.154.461.231.615.308-.308.77-.691 1.001-1.078.231-.385.462-.462.693-.23.308.309.539.617.924.617.77 0 .231.615.539 1.23.616 1.232 1.31 2.465 1.925 3.773-.616-2.002-1.31-4.158-1.848-6.008-.462-1.463.462-.385.462-.385l1.077 1.077zm-22.333-33.115c-.693-1.078-1.232-2.156-1.463-3.158.461-.462 1.001-.462 1.54-.385 0 .539.308 1.463-.077 1.694l.693.77s-.077.385-.077.616c0 .617-.077 1.31-.616.463zm12.938 48.902c.077.694-1.848.462-1.848-.308.077-1.31.539-3.004.539-4.004 0-1.233-1.155-4.854-1.232-5.854-.077-2.233.616-4.235 1.001-1.771.693 3.851.847 7.778 1.54 11.937zm-2.542-1.232c-.616.078-1.463-.539-1.771-1.002l.54-4.543c.077-.848.385-.848.693 0 .693 1.694 1.155 3.543 1.078 4.312-.154 1.002-.925.54-.54 1.233zm1.926-11.86c.231-1.694.771-1.231 1.001-.539 1.617 4.698 3.62 10.858 3.542 11.706 0 0-.077.462-1.001.309-4.312-.848-3.696-10.782-3.542-11.476zm-4.852 8.933c.385-5.622.693-8.163 1.078-9.856.308-1.232.616-1.155.539.076-.077 2.156-.462 4.621-1.309 9.857-.077 1.156-.308 1.002-.308-.077zm-2.156 1.156c-.154.539-1.001-.539-.847-1.463.385-3.158 2.464-1.233 1.54-5.854-.077-.539 1.232-1.232 1.078-.386l-1.771 7.703zm-8.934-3.389l-.847-1.155c1.155-1.463 2.08-2.003 2.542-3.465.154-.386.616-.154.308 1.23-.155.925-1.233 2.235-2.003 3.39zm-.154-3.234c.308-.693.77-1.386 1.463-2.156.308-.309.385-.229.308.154-.231.77-.77 1.617-1.463 2.232-.385.309-.616.309-.308-.23zm33.577 2.002c-.77-.847-1.386-1.926-1.694-3.003-.308-1.386.077-1.079.539-.31l2.08 3.004c.462.848.154 1.541-.925.309zm-30.419-4.082c.462-.691 1.079-1.23 1.694-1.925.616-.616.693-.462.385.153-.385.848-1.078 1.541-1.694 2.156-.771.771-1.002.618-.385-.384zm33.038 3.697c-1.31-3.773-2.927-3.157-5.314-6.393-.308-.461.309-1.231.694-.925 3.08 2.618 3.927 4.313 6.623 5.699 1.154.541-1.618 2.697-2.003 1.619zm3.157-1.617c-2.002-1.464-4.159-3.312-6.392-5.314-.616-.615.693-1.617 1.155-.847 1.386 2.619 3.696 4.159 5.93 4.775 1.002.308.155 2.002-.693 1.386zm-36.965-6.239l-.539.616c.616-.385 1.232-.771 1.848-1.001.462-.154.77-.077.308.462-1.925 2.312-4.774 5.236-6.623 7.316-.616.462-1.541-.386-1.001-1.155.385-.539 1.309-1.771 2.541-3.157l-.77.616c-.539.385-1.617.691-.616-.771-.693.692-1.31 1.311-1.771 1.849-.77.692-1.925.231-1.694-.692.231-.693.847-1.464 1.694-2.232v-.848c-.847.924-1.925 1.771-2.542 2.155-.77.386-1.386-.308-.847-1.078.308-.308 1.463-1.231 2.619-1.925 0-.309.154-.539.693-.848l-1.078.309s-1.309.539-.539-.309l.539-.615c-.616.385-1.309.539-2.079.691-.693.154-.847-.229-.231-.691.308-.23.616-.463.924-.616l-3.003.847c-.616.231-1.848-.461-1.232-.77 2.927-1.464 5.853-2.234 5.699-1.079 0 .231-.154.385-.385.539.616-.229 1.232-.385 1.925-.539.539-.462 1.079-.924 1.54-1.231l-1.694.463c-.539.152-.693 0 0-.463 1.54-1.078 4.082-2.08 5.93-2.233.847-.076 1.079.153.462.463-.924.462-1.771.771-2.696 1.078.154 0 .231.077.308.231.077.152.154.308.231.537.616-.308 1.386-.691 2.156-1.23.693-.539 1.925.462 1.309.77l-.77.309c.539.154.847.617.462.848-1.309.616-2.542 1.311-4.159 2.156l1.232-.539c.539-.23.616-.23.539 0l.462-.23c.385-.154.693 0 .231.385l-1.309 1.311c.231-.154.385-.23.616-.309 1.156-.159 1.771.071 1.31.61zm2.002.307c.539-.846 1.386-1.539 2.464-2.694.462-.385.616 1.464-.154 2.08-1.232 1.078-2.002 2.464-2.926 3.157-.693.539-.847.308-.539-.077.924-1.155 1.155-2.466 2.542-2.927h-.308c-1.002-.153-.694 1.078-1.079.461zm31.113.31l-1.001-1.386s-.924-1.232.616-.309c1.463.924 2.619 1.926 3.851 2.85 1.232 1.001 1.31 1.386-.461.462-1.08-.539-2.004-1.232-3.005-1.617zm-46.439-3.312s-3.542-.693-.231-1.31c3.928-.692.231 1.31.231 1.31zm51.368 2.927c.693.229 1.309.616 1.925 1.001.693.462.77.693-.231.385-.693-.23-1.309-.615-2.002-1.078-.463-.308-.386-.54.308-.308zm-10.782.231c-.231-.539-.54-1.231-.848-1.694-.462-.692-.231-.771.385-.308.616.385 1.155 1.077 1.925 1.539.386.155-1.231.924-1.462.463zm-41.279-6.084c-.231-.386.847.385 1.386.539.616.153 1.848-.617 1.617-.23-.923 1.154-2.079 1.076-3.003-.309zm42.28 2.926c.693.386 1.309.924 1.694 1.463.308.539.385.848-.309.386-.847-.462-1.232-1.001-1.694-1.694-.461-.462-.153-.386.309-.155zm1.54.386c.077-.771-.462-.849-1.078-1.541-.154-.231-.154-.462.385-.308 1.001.153 1.232.614 2.002 1.539.616.616-.077.539-.077.539l-1.232-.229zm3.774.075c-.77-.153-.693-1-.539-1.616.154-.462.385-.153.539-.077.54.693 1.31 1.311 1.925 1.926.385.385.231.463 0 .385-.77-.308-1.232-.462-1.925-.618zm8.394 1.619c-.154.153-.308 0-.308 0s.231 1.231-.154.924c-1.463-1.387-3.235-2.232-4.467-3.157-.771-.615-.693-.771.154-.229 1.078.691 2.388 1.385 4.236 2.311-.616-.693-.924-.926-1.617-1.464-.54-.386-.231-.616.462-.386s1.309.616 1.925 1.002c.308.153.385.309.231.463l-.462.536zm-2.387-3.621c.308.078.693.231 1.078.539.385.309.308.463-.154.386-.539-.077-.924-.308-1.232-.539-.308-.308-.462-.539.308-.386zm-42.819-27.184c.077-1.001-1.463-.693-2.311-1.694-.385-.462.385-.231 1.386-.154.693 0 .693-.231.693-.616 0-.462.309-.231.385.077.077.462-.154.924-.154 1.155 1.848.847 1.771 1.617 2.156 2.926.154.539-.077.693-.616.308-.769-.693-1.539-1.309-1.539-2.002zm1.155-4.236c-.385-.924 1.078-1.387 1.078-.924.077 1.463.847 2.695 1.463 4.312.385.924.154 1.001-.462.231-.923-1-1.54-2.233-2.079-3.619zm5.391 4.082c-.693-.308-.924-1.232-.847-2.002.231.308.77 1.001.847 2.002zm-17.944 13.093s3.62 2.617-.462 1.231c-2.31-.847.462-1.231.462-1.231zm5.314 18.713c-.385.539-1.155.847-1.925.924-.308 0-.385-.077-.077-.308.462-.31 1.078-.693 1.771-.849.308-.153.385.001.231.233zm.385-11.013c-4.082.229-5.699.229-6.854 0-.385-.078-.385-.31 0-.386.308-.077.539-.077.847-.077-.77-.385-1.771-1.462-.616-1.462 1.155 0 2.464 0 3.851.076-1.771-.462-3.158-1.154-3.62-2.695 0 0-.231-.924.308-1 .385-.078 2.927.308 5.699.847-2.387-1.31-4.852-3.234-4.621-4.082-.616 0-2.002-.386-1.925-.847.461-.386.461-.693.616-1.155.924.077 1.925.153 2.926.308.309.077.54.693.462 1.079-.077.771 1.309 1.078 3.465 1.925-.847-.615-1.463-1.154-2.156-1.617-.385-.231-.616-.771.385-.386.924.308 2.002 1.078 2.695 1.31-1.848-1.387-3.928-3.004-4.852-4.083-.385-.462-.154-.693.231-.847.385-.077.77-.077 1.001-.231l-.539-.693s-.77-1.001.924-.231c.385.154.77.385 1.232.693 0-.77.616-.847 1.694-.539 0-.154-.077-.23 0-.385.154-1.001-1.463-.385-2.233-1.078-.616-.462.231-1.463 1.079-.924.693.462 1.232.847 1.771 1.31-.231-.309-.385-.617-.539-1.001-.231-.385-.077-.539.308-.385.462.154.924.385 1.386.693-.847-.924-1.618-1.925-2.388-3.157-.616-1.001 1.078-1.849 1.541-1.155 1.001 1.308 2.079 2.617 3.081 3.85l.154-.693c.077-.308.308-.308.539-.077l.154.23c-.231-.385-.462-.693-.616-1.078-.308-.693-.077-.848.385-.385 1.54 1.309 3.081 3.312 3.927 5.16.154.385.077.462-.308.154-.616-.462-1.155-1.001-1.617-1.541.385.539.616 1.078.539 1.463 0 .308-.462-.077-1.001-.616 1.001 1.232 2.002 2.311 2.926 3.234.308.309 0 .539-.231.693-.231.23-.693.308-1.155-.309-.385-.539-.847-1-1.387-1.541.385.541.616 1.001.77 1.464.077.229.077.461-.385.229-.616-.308-1.155-.616-1.694-.924.616.54 1.309 1.155 2.079 1.849.385.309.617.771.308.924l-.924.309c-.231.076-.539.154-.847-.23-.385-.386-.924-.848-1.541-1.464l1.078 1.464c.154.23.077.461-.231.153-.462-.385-1.001-.771-1.463-1.079 1.232 1.311 2.387 2.619 3.157 3.697.385.615-1.925-.54-2.926-.617-.154.154-.308.309-.385.462.77.462 1.541 1.078 2.388 1.771.231.154-.077.386-1.078.386h-.309c1.232.308 2.08.616 2.08.771 0 .461-.924.539-2.387.539l-3.62.231c1.463.077 2.926.231 4.312.384l2.08-.539c1.001.154 1.925.693 1.309.846-1.001.231-3.158.387-5.468.463 1.54.154 2.618.386 3.003.617.924.385-1.925.539-2.85.692-1.617.308-1.848.771-1.155.771.539 0 .924 0 1.232.076 1.232.31 1.155.771.616.848l-1.54.23c.23 0 .539.077.77.153 0 0 3.542.463 2.464.848l-1.309.386c1.54-.153 2.618-.153 2.002.153-2.387 1.31-6.161 3.003-7.547 3.081-1.386.153-.924-.771-1.771-.23-.154-.539.462-1.541 1.078-2.004.077-.076.308-.076.693-.152l-2.156.152c-.539 0-1.001-.308-1.001-.308-.462-.231-.231-.539.539-.847l1.617-.616c-1.463.308-2.927.692-4.467 1.463-1.001.462-1.694-1.31-.924-1.54 1.694-.462 4.082-.924 6.161-1.309-1.771.152-3.773.385-5.545.615-.308-.463-.693-.31-1.078-.615-.077-.078-.231-.232.385-.54 1.078-.539 2.311-.539 3.542-.849 1.001-.152 1.386.771 1.386.771s.616-.385 1.386-.385h.308c.39-.226.313-.534.39-.919zm15.479 11.783c0 .153-.231.848-.539 1.848.462-1 .924-2.078 1.309-3.002.924.539 1.387.539 1.31 1.539-.077.925-2.542 5.931-3.62 9.55-.154.463-.308.385-.231-.076.077-.54.385-1.231-.154-1.155-.308 0-.539-.309.385-.771-.308-.309-.771-.309-.616-1.31 0-.229.154-.538.308-1.001-1.155 2.311-2.772 4.467-4.852 4.159l-.846-.539c.154-.848 3.696-5.776 6.623-9.627.923-1.54 1.232-.924.923.385zm-8.779-9.164s-2.772-1.849.308-1.232c4.082.769-.308 1.232-.308 1.232zm1.848-6.622c-.693.308-1.54-.154-2.079-.771.463 0 1.309.076 2.079.771z"/><path fill="#fff" d="M51.906 24.236v14.169h-1.925l-.539-.924c-.616.924-1.694 1.155-2.772 1.155-1.694 0-3.081-1.001-3.773-2.541-.231-.54-.385-1.155-.385-1.849 0-2.311.847-4.466 2.542-6.007.462-.461 1.001-.847 1.463-1.154l1.387-1.001c.385-.308.77-.616 1.078-.925v-.848c0-.924-.385-1.694-1.463-1.771-.847-.077-1.54.462-1.849 1.387l-2.464-1.694c.231-.539.693-1.232 1.54-1.771.847-.539 1.771-.77 2.695-.77 1.155 0 2.311.462 3.081 1.386.691.385 1.384 1.463 1.384 3.158zm-11.013-1.849c.231.539.308 1.155.308 1.849v9.627c0 .615-.077 1.231-.308 1.847-.693 1.693-2.233 2.85-4.082 2.85-.924 0-2.079-.23-2.772-.924l-.539.847h-1.925v-24.028l2.926-.616v6.469c.154-.154.385-.308.693-.385.462-.154 1.001-.308 1.617-.308 1.849-.078 3.389 1.001 4.082 2.772zm6.315 13.323c1.001 0 1.849-1.078 1.849-2.079v-4.929c-1.849 1.31-3.62 2.771-3.62 5.236 0 .539.154.923.539 1.31.231.308.693.462 1.232.462zm12.938-15.787h2.927v18.482h-1.926l-.539-.848c-.616.694-1.463.926-2.388.926-1.155 0-2.233-.463-3.003-1.231-.385-.386-.693-.925-.924-1.464-.23-.539-.385-1.232-.385-1.925v-13.94h2.926v13.861c0 .539.154.924.462 1.309.308.31.693.539 1.232.539.462 0 .847-.154 1.232-.539.308-.308.462-.771.462-1.309v-13.861h-.076zm-21.794 4.313c0-1-1.001-1.771-1.925-1.771-1.001 0-1.925.77-1.925 1.771v9.627c0 1.078.924 1.77 1.925 1.77s1.925-.771 1.925-1.77v-9.627zm50.674-2.003v2.772h-.308l-.539-.616c-.616.539-1.463.771-2.311.771-2.387 0-4.159-2.388-4.159-4.621 0-1.771.924-3.389 2.388-4.312.539-.308 1.232-.462 1.848-.462.77 0 1.463.231 2.079.693l.54-.54h.309v2.541h-.309c-.23-1.463-1.232-2.387-2.541-2.387-.847 0-1.31.154-1.771.924-.616.924-.462 2.541-.462 3.619 0 .771 0 1.771.231 2.696.231.847.847 1.464 1.925 1.464 1.617.076 2.388-1.08 2.772-2.542h.308zm4.39-5.93v3.851c1.31 0 2.002-.231 2.002-1.618h.385v3.697h-.309c-.154-1.463-.615-1.771-2.002-1.771v4.082h1.926c1.771 0 2.08-1.001 2.388-2.541h.385l-.153 2.849h-7.625v-.308h1.31v-8.24h-1.31v-.309h7.394l.077 2.388h-.385c-.309-1.309-.771-1.771-1.463-2.002-.31-.077-.695-.077-1.156-.077l-1.464-.001zm13.4 8.78h-.385l-5.699-8.472v8.009h1.311v.308h-3.083v-.308h1.31v-8.317h-1.31v-.309h3.389l3.928 5.853v-5.544h-1.309v-.309h3.08v.309h-1.31v8.778h.077v.002zm3.696-.155v-.308h1.386v-8.317c-1.848-.077-2.464.847-2.695 2.541h-.461l.154-2.85h7.624l.153 2.85h-.385c-.23-1.694-.847-2.618-2.695-2.541v8.24h1.387v.308h-4.466v.077h-.002zm10.32-.385h1.311v.308h-4.391v-.308h1.311v-8.24h-1.311v-.309h4.467c1.463 0 3.158.154 3.158 2.002 0 1.54-1.617 2.002-2.85 2.157 2.079.308 2.542 1.463 2.542 3.619 0 .462.076 1.001 1.309.771v.308c-.385.077-.771.154-1.154.154-1.387 0-2.079-.693-2.079-2.08 0-1.078-.154-1.925-.539-2.233-.386-.308-.771-.462-1.231-.462h-.771v4.312h.23v.001zm0-4.543h1.078c1.232 0 1.694-.539 1.694-1.771 0-1.464-.462-1.849-1.617-1.849h-1.155v3.62zm6.546.231c0-2.233 1.924-4.467 4.158-4.467 2.232 0 4.157 2.233 4.157 4.467 0 2.464-1.54 4.929-4.157 4.929-2.619-.077-4.158-2.465-4.158-4.929zm6.392-1.464c0-.462-.077-.924-.229-1.309-.232-.847-.849-1.386-2.004-1.386-1.154 0-1.771.539-2.002 1.386-.154.385-.23.847-.23 1.309v2.927c0 .539 0 1.001.152 1.463.232.924.771 1.54 2.08 1.54 1.232 0 1.85-.615 2.079-1.54.154-.462.154-1.001.154-1.463v-2.927zm15.248-2.772v.309h-1.31v5.622c0 1.309-.23 2.002-.771 2.464s-1.388.693-2.618.693c-.924 0-1.771-.309-2.388-.693-.539-.462-.847-1.309-.847-2.772v-5.313h-1.311v-.309h4.391v.309h-1.311v4.929c0 1.848-.23 3.464 2.234 3.464 1.539 0 2.231-1 2.231-2.463v-5.93h-1.31v-.309l3.01-.001zm8.163 9.088h-.385l-5.698-8.472v8.009h1.309v.308h-3.079v-.308h1.309v-8.317h-1.231v-.309h3.39l3.927 5.853v-5.544h-1.31v-.309h3.08v.309h-1.31l-.002 8.78zm5.006-.54h1.311v.308h-4.391v-.308h1.309v-8.24h-1.309v-.309h4.391v.309h-1.311v8.24zm6.314.54h-.386l-3.157-8.779h-1.078v-.309h4.235v.309h-1.386l2.311 6.237 2.233-6.237h-1.387v-.309h2.927v.309h-1.078l-3.234 8.779zm7.625-8.78v3.851c1.31 0 2.002-.231 2.002-1.618h.386v3.697h-.386c-.154-1.463-.615-1.771-2.002-1.771v4.082h1.926c1.771 0 2.078-1.001 2.387-2.541h.385l-.152 2.849h-7.625v-.308h1.311v-8.24h-1.311v-.309h7.394l.077 2.388h-.309c-.309-1.309-.771-1.771-1.463-2.002-.309-.077-.693-.077-1.156-.077l-1.464-.001zm9.011 8.24h1.309v.308h-4.389v-.308h1.31v-8.24h-1.31v-.309h4.466c1.463 0 3.157.154 3.157 2.002 0 1.54-1.616 2.002-2.851 2.157 2.08.308 2.543 1.463 2.543 3.619 0 .462.076 1.001 1.309.771v.308c-.385.077-.77.154-1.154.154-1.387 0-2.079-.693-2.079-2.08 0-1.078-.153-1.925-.538-2.233-.387-.308-.771-.462-1.234-.462h-.77v4.312h.231v.001zm0-4.543h1.077c1.232 0 1.695-.539 1.695-1.771 0-1.464-.463-1.849-1.617-1.849h-1.155v3.62zm7.085 5.006h-.231v-2.696h.386c.309 1.232 1.078 2.465 2.465 2.465 1.078 0 2.002-.771 2.002-1.85 0-1.232-1.077-1.463-2.078-1.848l-.771-.231c-1.231-.385-1.849-1.31-1.849-2.542 0-1.386 1.078-2.464 2.465-2.464.771 0 1.31.154 1.925.693l.539-.539h.231v2.464h-.464c-.152-1.232-1-2.31-2.311-2.31-.847 0-1.693.616-1.693 1.54 0 1.001.692 1.155 1.541 1.386.308.077.615.154.848.231.23.077.615.154.847.308 1.155.54 1.54 1.386 1.54 2.619 0 1.694-1.078 2.927-2.849 2.927-.617 0-1.464-.231-1.927-.694l-.616.541zm9.626-.463h1.31v.308h-4.39v-.308h1.31v-8.24h-1.31v-.309h4.39v.309h-1.31v8.24zm3.85.385v-.308h1.387v-8.317c-1.849-.077-2.463.847-2.694 2.541h-.462l.152-2.85h7.625l.153 2.85h-.385c-.231-1.694-.847-2.618-2.695-2.541v8.24h1.388v.308h-4.469v.077zm5.93 0v-.308h1.078l3.157-8.779h.464l3.079 8.779h1.078v.308h-4.235v-.308h1.387l-.848-2.387h-2.851l-.847 2.387h1.387v.308h-2.849zm2.465-3.08h2.619l-1.232-3.696-1.387 3.696zm10.011 2.695h1.311v.308h-4.391v-.308h1.311v-8.24h-1.311v-.309h4.467c1.463 0 3.157.154 3.157 2.002 0 1.54-1.617 2.002-2.851 2.157 2.08.308 2.543 1.463 2.543 3.619 0 .462.076 1.001 1.309.771v.308c-.385.077-.77.154-1.154.154-1.387 0-2.08-.693-2.08-2.08 0-1.078-.154-1.925-.539-2.233-.385-.308-.771-.462-1.231-.462h-.771v4.312h.23v.001zm0-4.543h1.079c1.231 0 1.692-.539 1.692-1.771 0-1.464-.461-1.849-1.617-1.849h-1.154v3.62zm9.397 4.543h1.31v.308h-4.39v-.308h1.31v-8.24h-1.31v-.309h4.39v.309h-1.31v8.24zm2.31-4.312c0-2.233 1.926-4.467 4.157-4.467 2.234 0 4.16 2.233 4.16 4.467 0 2.464-1.541 4.929-4.16 4.929-2.617 0-4.157-2.465-4.157-4.929zm6.315-1.464c0-.462-.078-.924-.231-1.309-.231-.847-.847-1.386-2.002-1.386s-1.771.539-2.002 1.386c-.154.385-.231.847-.231 1.309v2.927c0 .539 0 1.001.153 1.463.231.924.771 1.54 2.08 1.54 1.231 0 1.849-.615 2.079-1.54.154-.462.154-1.001.154-1.463v-2.927zm-160.647 11.014h3.697c1.463 0 2.156.154 2.849.616 1.387.847 2.08 2.233 2.08 3.85 0 1.541-.693 3.158-2.156 3.928-1.001.539-2.157.539-3.312.539h-3.234v-.309h1.309v-8.24h-1.309v-.385h.076v.001zm3.003 8.624c1.694 0 2.85.078 3.466-1.617.308-.924.308-2.002.308-2.849 0-1.693-.308-2.771-.771-3.156-.539-.541-1.463-.617-3.003-.617v8.239zm9.704-8.239v3.85c1.31 0 2.002-.231 2.002-1.616h.385v3.696h-.385c-.153-1.464-.616-1.772-2.002-1.772v4.082h1.925c1.771 0 2.079-1 2.387-2.541h.385l-.153 2.85h-7.625v-.309h1.31v-8.24h-1.31v-.307h7.394l.076 2.387h-.385c-.309-1.31-.77-1.771-1.463-2.002-.309-.078-.693-.078-1.155-.078h-1.386zm8.933-.385h3.697c1.463 0 2.156.154 2.85.616 1.385.847 2.08 2.233 2.08 3.85 0 1.541-.693 3.158-2.158 3.928-1 .539-2.155.539-3.312.539h-3.233v-.309h1.309v-8.24h-1.309v-.385h.076v.001zm3.004 8.624c1.694 0 2.85.078 3.465-1.617.309-.924.309-2.002.309-2.849 0-1.693-.309-2.771-.77-3.156-.539-.541-1.463-.617-3.004-.617v8.239zm9.627 0h1.309v.309h-4.391v-.309h1.31v-8.24h-1.31v-.307h4.391v.307h-1.309v8.24zm2.849.385h-.23v-2.618h.385c.308 1.231 1.078 2.465 2.463 2.465 1.078 0 2.001-.771 2.001-1.849 0-1.232-1.077-1.463-2.079-1.849l-.771-.23c-1.231-.386-1.848-1.309-1.848-2.542 0-1.387 1.078-2.465 2.464-2.465.771 0 1.31.154 1.925.693l.539-.539h.231v2.544h-.462c-.154-1.232-1.001-2.311-2.311-2.311-.847 0-1.694.615-1.694 1.54 0 1.001.693 1.155 1.541 1.386.309.077.617.154.848.23.23.078.615.154.847.309 1.155.539 1.541 1.386 1.541 2.618 0 1.694-1.079 2.927-2.849 2.927-.616 0-1.464-.23-1.925-.693l-.616.384zm9.701-8.624v3.85c1.311 0 2.004-.231 2.004-1.616h.386v3.696h-.386c-.154-1.464-.615-1.772-2.004-1.772v4.082h1.927c1.771 0 2.079-1 2.388-2.541h.385l-.153 2.85h-7.624v-.309h1.31v-8.24h-1.31v-.307h7.394l.077 2.387h-.386c-.308-1.31-.771-1.771-1.464-2.002-.307-.078-.692-.078-1.153-.078h-1.391zm13.402 8.7h-.386l-5.698-8.47v8.009h1.309v.308h-3.079v-.308h1.309v-8.24h-1.309v-.309h3.389l3.927 5.853v-5.544h-1.31v-.309h3.081v.309h-1.232v8.701h-.001zm-.925-11.626c-.153.77-.616 1.463-1.463 1.463-.385 0-.692-.154-1.078-.309-.31-.154-.616-.308-.847-.308-.387 0-.617.308-.693.692h-.462c.153-.77.615-1.463 1.463-1.463.386 0 .693.154 1.001.309.309.154.616.308.924.308.385 0 .616-.385.693-.692h.462zm3.08 6.776c0-2.233 1.927-4.466 4.159-4.466s4.158 2.233 4.158 4.466c0 2.465-1.541 4.929-4.158 4.929-2.618-.001-4.159-2.465-4.159-4.929zm6.394-1.386c0-.462-.078-.924-.231-1.309-.229-.848-.847-1.387-2.002-1.387s-1.771.539-2.003 1.387c-.153.385-.23.847-.23 1.309v2.925c0 .54 0 1.001.154 1.463.23.926.77 1.541 2.079 1.541 1.231 0 1.848-.615 2.08-1.541.153-.462.153-1.001.153-1.463v-2.925zm-68.772 11.013h3.697c1.463 0 2.156.154 2.849.616 1.387.847 2.08 2.232 2.08 3.852 0 1.539-.693 3.156-2.156 3.926-1.001.539-2.157.539-3.312.539h-3.234v-.308h1.309v-8.318h-1.309v-.309l.076.002zm3.003 8.547c1.694 0 2.85.077 3.466-1.617.308-.924.308-2.002.308-2.85 0-1.693-.308-2.771-.771-3.156-.539-.539-1.463-.617-3.003-.617v8.24zm9.704-8.24v3.851c1.31 0 2.002-.231 2.002-1.617h.385v3.696h-.385c-.153-1.463-.616-1.771-2.002-1.771v4.081h1.925c1.771 0 2.079-1.001 2.387-2.54h.385l-.153 2.85h-7.625v-.31h1.31v-8.24h-1.31v-.309h7.394l.076 2.387h-.385c-.309-1.31-.77-1.771-1.463-2.002-.309-.076-.693-.076-1.155-.076h-1.386zm8.778 8.625v-.309h1.31v-8.316h-1.31v-.309h4.082c1.463 0 3.619.23 3.619 2.156 0 1.386-1.387 1.925-2.541 2.156 1.31.076 2.85.77 2.85 2.31 0 1.155-.848 1.771-1.771 2.08-1 .31-2.232.229-3.156.229h-3.082v.003zm3.08-4.774h1.156c1 0 1.616-.462 1.616-2.002 0-2.156-1.155-1.771-2.851-1.849v3.851h.079zm0 4.389h1.694c1.155 0 1.386-1.154 1.386-2.078 0-1.232-.385-2.08-1.771-2.08h-1.231v4.158h-.078zm5.545.385v-.309h1.078l3.158-8.779h.461l3.082 8.779h1.077v.309h-4.235v-.309h1.386l-.847-2.388h-2.851l-.847 2.388h1.387v.309h-2.849zm2.466-3.08h2.618l-1.231-3.696-1.387 3.696zm10.01 2.695h1.311v.31h-4.39v-.31h1.309v-8.24h-1.309v-.308h4.466c1.463 0 3.157.154 3.157 2.002 0 1.54-1.616 2.003-2.851 2.156 2.08.31 2.541 1.463 2.541 3.619 0 .463.078 1.001 1.311.771v.31c-.385.075-.77.153-1.154.153-1.387 0-2.08-.692-2.08-2.08 0-1.078-.152-1.924-.539-2.232-.385-.309-.77-.462-1.231-.462h-.771v4.312h.23zm0-4.543h1.078c1.232 0 1.695-.539 1.695-1.771 0-1.463-.463-1.848-1.618-1.848h-1.155v3.619zm13.862 2.233v2.773h-.307l-.539-.617c-.617.539-1.465.771-2.312.771-2.388 0-4.159-2.388-4.159-4.621 0-1.771.926-3.388 2.389-4.312.539-.31 1.231-.463 1.849-.463.771 0 1.463.231 2.079.693l.539-.54h.309v2.542h-.385c-.232-1.463-1.233-2.388-2.542-2.388-.849 0-1.31.153-1.771.925-.617.924-.463 2.541-.463 3.619 0 .771 0 1.771.23 2.696.23.847.848 1.462 1.926 1.462 1.617.078 2.387-1.077 2.771-2.541h.386zm4.39-5.93v3.851c1.311 0 2.003-.231 2.003-1.617h.386v3.696h-.386c-.153-1.463-.616-1.771-2.003-1.771v4.081h1.926c1.771 0 2.079-1.001 2.389-2.54h.385l-.154 2.85h-7.624v-.31h1.31v-8.24h-1.31v-.309h7.394l.076 2.387h-.385c-.309-1.31-.771-1.771-1.464-2.002-.308-.076-.692-.076-1.153-.076h-1.39zm5.622 8.625v-.309h1.31v-8.316h-1.31v-.309h4.39v.309h-1.386v8.239h1.771c1.695 0 2.312-1.155 2.389-2.694h.386l-.153 3.004h-7.395l-.002.076zm8.472-4.697c0-2.233 1.926-4.467 4.158-4.467 2.234 0 4.159 2.232 4.159 4.467 0 2.465-1.54 4.929-4.159 4.929-2.617 0-4.158-2.542-4.158-4.929zm6.393-1.465c0-.461-.078-.924-.232-1.309-.23-.847-.847-1.387-2.002-1.387-1.154 0-1.771.54-2.002 1.387-.154.385-.23.848-.23 1.309v2.928c0 .539 0 1.002.154 1.464.229.924.77 1.54 2.078 1.54 1.232 0 1.85-.616 2.08-1.54.154-.462.154-1.001.154-1.464v-2.928zm10.55 6.316h-.386l-5.698-8.471v8.009h1.31v.308h-3.08v-.308h1.31v-8.317h-1.231v-.309h3.389l3.928 5.854v-5.545h-1.311v-.309h3.082v.309h-1.311l-.002 8.779zm1.54-.154v-.309h1.078l3.156-8.779h.463l3.08 8.779h1.078v.309h-4.234v-.309h1.387l-.848-2.388h-2.85l-.848 2.388h1.387v.309h-2.849zm2.464-3.08h2.618l-1.231-3.696-1.387 3.696z"/></svg>